<svg width="10" height="10" xmlns="http://www.w3.org/2000/svg">
 <g>
  <rect fill="none" id="canvas_background" height="12" width="12" y="-1" x="-1"/>
 </g>
 <g>
  <path stroke="null" id="svg_1" d="m1.676455,9.528987a0.628447,0.628447 0 0 0 0.444312,-1.072758l-0.628447,-0.628447a0.628447,0.628447 0 0 0 -0.888623,0.888623l0.628447,0.628447a0.628447,0.628447 0 0 0 0.444312,0.184135zm3.543182,0a0.628447,0.628447 0 0 0 0.444312,-1.072758l-4.171628,-4.171628a0.628447,0.628447 0 1 0 -0.888623,0.888623l4.171628,4.171628a0.628447,0.628447 0 0 0 0.446197,0.184135l-0.001885,0zm3.670128,0a0.628447,0.628447 0 0 0 0.444312,-1.072758l-7.841756,-7.841127a0.628447,0.628447 0 0 0 -0.888623,0.888623l7.841127,7.841127a0.628447,0.628447 0 0 0 0.44494,0.184135z" fill="#fff"/>
 </g>
</svg>